<svg xmlns="http://www.w3.org/2000/svg" version="1.1" xmlns:xlink="http://www.w3.org/1999/xlink" width="512" height="512" x="0" y="0" viewBox="0 0 512 512" style="enable-background:new 0 0 512 512" xml:space="preserve" class=""><g><path d="m326.013 438.324 9.8-18.494c4.392-8.288 1.306-18.567-6.924-23.066h0a17.146 17.146 0 0 0-3.265-1.371M264.853 440.594l155.459-121.352M443.172 301.398l56.586-44.171c5.367-4.189 6.321-11.936 2.132-17.303L395.755 103.96c-4.189-5.367-11.936-6.321-17.303-2.132L108.366 312.659a12.282 12.282 0 0 0-3.573 4.471" style="stroke-linecap: round; stroke-linejoin: round; stroke-miterlimit: 10;" fill="none" stroke="#000000" stroke-width="15px" stroke-linecap="round" stroke-linejoin="round" stroke-miterlimit="10" data-original="#000000"></path><path d="m168.305 355.848-6.514-8.345c11.903-9.291 14.019-26.472 4.728-38.375l194.392-151.744c9.291 11.903 26.472 14.019 38.375 4.728l47.047 60.27c-11.903 9.291-14.019 26.472-4.728 38.375L247.212 412.501c-9.291-11.903-26.472-14.02-38.375-4.728" style="stroke-linecap: round; stroke-linejoin: round; stroke-miterlimit: 10;" fill="none" stroke="#000000" stroke-width="15px" stroke-linecap="round" stroke-linejoin="round" stroke-miterlimit="10" data-original="#000000"></path><path d="M297.357 255.14s-8.403 2.599-14.333 10.986c-5.445 7.702.391 18.822 8.19 18.84 4.479.01 10.056-1.461 17.244-3.867 16.086-5.385 25.305 16.033 12.547 26.129-4.979 3.94-7.566 5.449-14.208 6.005M322.816 309.548l3.255 4.171M281.489 256.607l3.579 4.584M75.838 321.065l48.382.234a34.365 34.365 0 0 1 31.202 20.329 32.443 32.443 0 0 0 14.425 15.418l29.461 15.612c8.535 4.523 11.788 15.109 7.265 23.644-4.495 8.483-14.988 11.757-23.51 7.335l-35.289-18.5 96.656 51.219a47.558 47.558 0 0 0 25.198 5.445l57.784-3.565a22.355 22.355 0 0 0 11.998-4.4l9.776-7.299a18.228 18.228 0 0 1 19.44-1.501c11.423 6.053 13.089 21.744 3.192 30.061a71.878 71.878 0 0 1-37.719 16.344l-72.825 8.701a96.127 96.127 0 0 1-50.965-7.84l-84.104-37.981a73.435 73.435 0 0 0-25.986-6.385l-23.059-1.332M64.375 113.395a186.862 186.862 0 0 0-21.852 43.551 3.036 3.036 0 0 1-3.616 1.962l-17.275-4.41c-2.294-.585-4.344 1.568-3.645 3.831l20.97 67.903c1.292 4.185 6.546 5.532 9.693 2.486l51.132-49.507c1.703-1.649.938-4.526-1.358-5.113l-12.658-3.231c-1.763-.45-2.722-2.337-2.078-4.039 11.595-30.624 33.021-56.209 61.675-73.21 53.514-31.751 119.328-25.109 165.24 11.69 3.176 2.545 7.701 2.527 10.91.023l19.84-15.488c4.33-3.38 4.55-9.906.385-13.489l-.081-.069c-22.368-19.219-49.184-32.987-78.79-40.032-45-10.708-92.585-4.338-133.167 17.861-18.018 9.856-33.843 22.28-47.225 36.601M7.5 409.161v29.714a8.998 8.998 0 0 0 8.998 8.998h48.409a8.997 8.997 0 0 0 8.998-8.998V311.376a8.998 8.998 0 0 0-8.998-8.998h-48.41a8.998 8.998 0 0 0-8.998 8.998v68.784" style="stroke-linecap: round; stroke-linejoin: round; stroke-miterlimit: 10;" fill="none" stroke="#000000" stroke-width="15px" stroke-linecap="round" stroke-linejoin="round" stroke-miterlimit="10" data-original="#000000"></path></g></svg>