<?xml version="1.0" encoding="UTF-8"?>
<!DOCTYPE svg PUBLIC "-//W3C//DTD SVG 1.1//EN" "http://www.w3.org/Graphics/SVG/1.1/DTD/svg11.dtd">
<svg xmlns="http://www.w3.org/2000/svg" version="1.1" width="205px" height="204px" style="shape-rendering:geometricPrecision; text-rendering:geometricPrecision; image-rendering:optimizeQuality; fill-rule:evenodd; clip-rule:evenodd" xmlns:xlink="http://www.w3.org/1999/xlink">
<g><path style="opacity:0.937" fill="#175e83" d="M 54.5,31.5 C 54.5,35.8333 54.5,40.1667 54.5,44.5C 47.826,43.4431 41.1593,42.2765 34.5,41C 30.5108,36.9546 30.5108,32.9546 34.5,29C 41.3166,28.7309 47.9833,29.5642 54.5,31.5 Z"/></g>
<g><path style="opacity:0.926" fill="#18688a" d="M 54.5,31.5 C 58.9155,31.8606 62.9155,33.1939 66.5,35.5C 66.5,69.8333 66.5,104.167 66.5,138.5C 61.4495,133.886 58.7829,128.052 58.5,121C 61.4274,98.231 63.2607,75.3976 64,52.5C 62.1309,48.3124 58.9642,45.6458 54.5,44.5C 54.5,40.1667 54.5,35.8333 54.5,31.5 Z"/></g>
<g><path style="opacity:0.958" fill="#186d8d" d="M 66.5,35.5 C 73.817,40.4522 77.817,47.4522 78.5,56.5C 76.2966,77.8693 73.9633,99.2026 71.5,120.5C 72.1207,124.408 73.7874,127.742 76.5,130.5C 76.5,135.167 76.5,139.833 76.5,144.5C 72.4945,143.502 69.1612,141.502 66.5,138.5C 66.5,104.167 66.5,69.8333 66.5,35.5 Z"/></g>
<g><path style="opacity:0.951" fill="#175a80" d="M 89.5,59.5 C 89.5,82.5 89.5,105.5 89.5,128.5C 82.8716,127.208 79.5383,123.208 79.5,116.5C 81.501,97.4919 83.501,78.4919 85.5,59.5C 86.8333,59.5 88.1667,59.5 89.5,59.5 Z"/></g>
<g><path style="opacity:0.982" fill="#176084" d="M 89.5,59.5 C 92.1667,59.5 94.8333,59.5 97.5,59.5C 97.5,82.5 97.5,105.5 97.5,128.5C 94.8333,128.5 92.1667,128.5 89.5,128.5C 89.5,105.5 89.5,82.5 89.5,59.5 Z"/></g>
<g><path style="opacity:0.982" fill="#18698b" d="M 97.5,59.5 C 102.833,59.5 108.167,59.5 113.5,59.5C 113.702,61.9496 113.369,64.283 112.5,66.5C 111.542,66.9528 110.708,67.6195 110,68.5C 108.824,77.1435 108.49,85.8102 109,94.5C 109.926,96.6917 111.093,98.6917 112.5,100.5C 112.5,109.833 112.5,119.167 112.5,128.5C 107.5,128.5 102.5,128.5 97.5,128.5C 97.5,105.5 97.5,82.5 97.5,59.5 Z"/></g>
<g><path style="opacity:0.987" fill="#1c7a97" d="M 113.5,59.5 C 121.167,59.5 128.833,59.5 136.5,59.5C 136.5,72.8333 136.5,86.1667 136.5,99.5C 134.833,99.5 133.167,99.5 131.5,99.5C 120.581,101.402 114.915,96.9021 114.5,86C 114.904,80.2918 115.571,74.6251 116.5,69C 115.968,66.9803 114.635,66.147 112.5,66.5C 113.369,64.283 113.702,61.9496 113.5,59.5 Z"/></g>
<g><path style="opacity:0.987" fill="#218d9f" d="M 136.5,59.5 C 140.167,59.5 143.833,59.5 147.5,59.5C 147.5,71.5 147.5,83.5 147.5,95.5C 142.859,99.9418 137.526,101.275 131.5,99.5C 133.167,99.5 134.833,99.5 136.5,99.5C 136.5,86.1667 136.5,72.8333 136.5,59.5 Z"/></g>
<g><path style="opacity:0.976" fill="#29a0a5" d="M 147.5,59.5 C 151.5,59.5 155.5,59.5 159.5,59.5C 159.5,62.1667 159.5,64.8333 159.5,67.5C 157.883,69.1209 156.716,71.1209 156,73.5C 154.666,78.8383 153.333,84.1717 152,89.5C 150.723,91.7472 149.223,93.7472 147.5,95.5C 147.5,83.5 147.5,71.5 147.5,59.5 Z"/></g>
<g><path style="opacity:0.984" fill="#2ab7a9" d="M 165.5,59.5 C 167.5,59.5 169.5,59.5 171.5,59.5C 171.5,82.1667 171.5,104.833 171.5,127.5C 169.621,128.341 167.621,128.675 165.5,128.5C 165.5,105.5 165.5,82.5 165.5,59.5 Z"/></g>
<g><path style="opacity:0.985" fill="#2dc0ac" d="M 171.5,59.5 C 173.833,59.5 176.167,59.5 178.5,59.5C 178.17,80.0069 178.503,100.34 179.5,120.5C 178.487,124.68 175.82,127.013 171.5,127.5C 171.5,104.833 171.5,82.1667 171.5,59.5 Z"/></g>
<g><path style="opacity:0.959" fill="#30ccaf" d="M 178.5,59.5 C 185.372,60.8691 188.706,65.0358 188.5,72C 186.182,88.4239 183.182,104.591 179.5,120.5C 178.503,100.34 178.17,80.0069 178.5,59.5 Z"/></g>
<g><path style="opacity:1" fill="#f6fafb" d="M 112.5,66.5 C 114.635,66.147 115.968,66.9803 116.5,69C 115.571,74.6251 114.904,80.2918 114.5,86C 114.915,96.9021 120.581,101.402 131.5,99.5C 137.526,101.275 142.859,99.9418 147.5,95.5C 149.223,93.7472 150.723,91.7472 152,89.5C 153.333,84.1717 154.666,78.8383 156,73.5C 156.716,71.1209 157.883,69.1209 159.5,67.5C 161.311,67.572 162.644,68.4053 163.5,70C 161.179,79.1452 158.179,87.9786 154.5,96.5C 152.473,99.1939 150.139,101.527 147.5,103.5C 144.603,104.129 141.936,105.129 139.5,106.5C 136.167,106.5 132.833,106.5 129.5,106.5C 123.033,106.642 117.366,104.642 112.5,100.5C 111.093,98.6917 109.926,96.6917 109,94.5C 108.49,85.8102 108.824,77.1435 110,68.5C 110.708,67.6195 111.542,66.9528 112.5,66.5 Z"/></g>
<g><path style="opacity:0.031" fill="#19819c" d="M 197.5,70.5 C 198.833,71.1667 198.833,71.1667 197.5,70.5 Z"/></g>
<g><path style="opacity:0.985" fill="#2aaca7" d="M 159.5,59.5 C 161.5,59.5 163.5,59.5 165.5,59.5C 165.5,82.5 165.5,105.5 165.5,128.5C 162.167,128.5 158.833,128.5 155.5,128.5C 155.828,117.654 155.494,106.987 154.5,96.5C 158.179,87.9786 161.179,79.1452 163.5,70C 162.644,68.4053 161.311,67.572 159.5,67.5C 159.5,64.8333 159.5,62.1667 159.5,59.5 Z"/></g>
<g><path style="opacity:0.047" fill="#19819c" d="M 196.5,72.5 C 197.833,73.1667 197.833,73.1667 196.5,72.5 Z"/></g>
<g><path style="opacity:0.966" fill="#197a97" d="M 48.5,74.5 C 48.5,81.8333 48.5,89.1667 48.5,96.5C 46.1667,96.5 43.8333,96.5 41.5,96.5C 41.5,89.5 41.5,82.5 41.5,75.5C 43.6074,74.5318 45.9407,74.1984 48.5,74.5 Z"/></g>
<g><path style="opacity:0.946" fill="#229da3" d="M 48.5,74.5 C 49.8333,74.5 51.1667,74.5 52.5,74.5C 52.5,81.5 52.5,88.5 52.5,95.5C 51.4324,96.4345 50.099,96.7678 48.5,96.5C 48.5,89.1667 48.5,81.8333 48.5,74.5 Z"/></g>
<g><path style="opacity:0.954" fill="#2cbeab" d="M 52.5,74.5 C 53.8333,74.5 55.1667,74.5 56.5,74.5C 56.5,80.5 56.5,86.5 56.5,92.5C 55.7377,94.2624 54.4044,95.2624 52.5,95.5C 52.5,88.5 52.5,81.5 52.5,74.5 Z"/></g>
<g><path style="opacity:0.29" fill="#32d3b0" d="M 56.5,74.5 C 57.8117,76.7432 58.4783,79.4098 58.5,82.5C 58.3333,85.1667 58.1667,87.8333 58,90.5C 57.7216,91.4158 57.2216,92.0825 56.5,92.5C 56.5,86.5 56.5,80.5 56.5,74.5 Z"/></g>
<g><path style="opacity:0.932" fill="#176083" d="M 41.5,75.5 C 41.5,82.5 41.5,89.5 41.5,96.5C 39.8333,96.5 38.1667,96.5 36.5,96.5C 36.3339,90.8236 36.5006,85.1569 37,79.5C 37.7475,77.249 39.2475,75.9156 41.5,75.5 Z"/></g>
<g><path style="opacity:0.938" fill="#187694" d="M 14.5,92.5 C 14.5,97.8333 14.5,103.167 14.5,108.5C 12.8333,108.5 11.1667,108.5 9.5,108.5C 9.5,103.5 9.5,98.5 9.5,93.5C 10.9187,92.5489 12.5853,92.2155 14.5,92.5 Z"/></g>
<g><path style="opacity:0.938" fill="#1e91a0" d="M 14.5,92.5 C 15.1667,92.5 15.8333,92.5 16.5,92.5C 16.5,97.8333 16.5,103.167 16.5,108.5C 15.8333,108.5 15.1667,108.5 14.5,108.5C 14.5,103.167 14.5,97.8333 14.5,92.5 Z"/></g>
<g><path style="opacity:0.971" fill="#27aca6" d="M 16.5,92.5 C 17.5,92.5 18.5,92.5 19.5,92.5C 19.5,97.1667 19.5,101.833 19.5,106.5C 18.7095,107.401 17.7095,108.068 16.5,108.5C 16.5,103.167 16.5,97.8333 16.5,92.5 Z"/></g>
<g><path style="opacity:0.977" fill="#30cbae" d="M 19.5,92.5 C 20.8001,94.223 21.4668,96.3897 21.5,99C 21.3333,101.167 21.1667,103.333 21,105.5C 20.6174,106.056 20.1174,106.389 19.5,106.5C 19.5,101.833 19.5,97.1667 19.5,92.5 Z"/></g>
<g><path style="opacity:0.909" fill="#175c82" d="M 9.5,93.5 C 9.5,98.5 9.5,103.5 9.5,108.5C 8.5,108.5 7.5,108.5 6.5,108.5C 6.33432,104.154 6.50098,99.8206 7,95.5C 7.41691,94.244 8.25025,93.5774 9.5,93.5 Z"/></g>
<g><path style="opacity:0.973" fill="#229ca3" d="M 154.5,96.5 C 155.494,106.987 155.828,117.654 155.5,128.5C 152.833,128.5 150.167,128.5 147.5,128.5C 147.5,120.167 147.5,111.833 147.5,103.5C 150.139,101.527 152.473,99.1939 154.5,96.5 Z"/></g>
<g><path style="opacity:0.969" fill="#1a7594" d="M 112.5,100.5 C 117.366,104.642 123.033,106.642 129.5,106.5C 129.5,113.833 129.5,121.167 129.5,128.5C 123.833,128.5 118.167,128.5 112.5,128.5C 112.5,119.167 112.5,109.833 112.5,100.5 Z"/></g>
<g><path style="opacity:0.978" fill="#1a8099" d="M 30.5,105.5 C 32.1667,105.5 33.8333,105.5 35.5,105.5C 35.5,113.167 35.5,120.833 35.5,128.5C 33.8333,128.5 32.1667,128.5 30.5,128.5C 30.5,120.833 30.5,113.167 30.5,105.5 Z"/></g>
<g><path style="opacity:0.983" fill="#24a4a5" d="M 35.5,105.5 C 36.8333,105.5 38.1667,105.5 39.5,105.5C 39.5,112.833 39.5,120.167 39.5,127.5C 38.2921,128.234 36.9587,128.567 35.5,128.5C 35.5,120.833 35.5,113.167 35.5,105.5 Z"/></g>
<g><path style="opacity:0.957" fill="#2fc6ae" d="M 39.5,105.5 C 41.1667,105.5 42.8333,105.5 44.5,105.5C 44.6662,111.509 44.4995,117.509 44,123.5C 42.9513,125.384 41.4513,126.718 39.5,127.5C 39.5,120.167 39.5,112.833 39.5,105.5 Z"/></g>
<g><path style="opacity:0.967" fill="#1f8f9f" d="M 147.5,103.5 C 147.5,111.833 147.5,120.167 147.5,128.5C 145.167,128.5 142.833,128.5 140.5,128.5C 140.825,120.981 140.492,113.648 139.5,106.5C 141.936,105.129 144.603,104.129 147.5,103.5 Z"/></g>
<g><path style="opacity:0.966" fill="#19819b" d="M 129.5,106.5 C 132.833,106.5 136.167,106.5 139.5,106.5C 140.492,113.648 140.825,120.981 140.5,128.5C 136.833,128.5 133.167,128.5 129.5,128.5C 129.5,121.167 129.5,113.833 129.5,106.5 Z"/></g>
<g><path style="opacity:0.97" fill="#176386" d="M 30.5,105.5 C 30.5,113.167 30.5,120.833 30.5,128.5C 27.5,128.5 24.5,128.5 21.5,128.5C 21.3339,122.824 21.5006,117.157 22,111.5C 23.605,107.724 26.4384,105.724 30.5,105.5 Z"/></g>
<g><path style="opacity:0.942" fill="#187a97" d="M 76.5,130.5 C 77.9217,130.709 79.255,131.209 80.5,132C 90.828,132.5 101.161,132.666 111.5,132.5C 111.5,136.833 111.5,141.167 111.5,145.5C 99.7527,145.811 88.0861,145.478 76.5,144.5C 76.5,139.833 76.5,135.167 76.5,130.5 Z"/></g>
<g><path style="opacity:0.942" fill="#1d90a0" d="M 111.5,132.5 C 114.833,132.5 118.167,132.5 121.5,132.5C 121.5,136.833 121.5,141.167 121.5,145.5C 118.167,145.5 114.833,145.5 111.5,145.5C 111.5,141.167 111.5,136.833 111.5,132.5 Z"/></g>
<g><path style="opacity:0.942" fill="#229fa3" d="M 121.5,132.5 C 126.5,132.5 131.5,132.5 136.5,132.5C 136.5,136.833 136.5,141.167 136.5,145.5C 131.5,145.5 126.5,145.5 121.5,145.5C 121.5,141.167 121.5,136.833 121.5,132.5 Z"/></g>
<g><path style="opacity:0.942" fill="#27b0a8" d="M 136.5,132.5 C 140.167,132.5 143.833,132.5 147.5,132.5C 147.5,136.833 147.5,141.167 147.5,145.5C 143.833,145.5 140.167,145.5 136.5,145.5C 136.5,141.167 136.5,136.833 136.5,132.5 Z"/></g>
<g><path style="opacity:0.942" fill="#2cbeab" d="M 147.5,132.5 C 152.5,132.5 157.5,132.5 162.5,132.5C 162.5,136.833 162.5,141.167 162.5,145.5C 157.5,145.5 152.5,145.5 147.5,145.5C 147.5,141.167 147.5,136.833 147.5,132.5 Z"/></g>
<g><path style="opacity:0.922" fill="#30cdaf" d="M 162.5,132.5 C 166.833,132.5 171.167,132.5 175.5,132.5C 174.127,139.705 169.793,144.038 162.5,145.5C 162.5,141.167 162.5,136.833 162.5,132.5 Z"/></g>
<g><path style="opacity:0.97" fill="#1a839c" d="M 81.5,148.5 C 82.5,148.5 83.5,148.5 84.5,148.5C 84.1739,157.017 84.5073,165.35 85.5,173.5C 84.4324,174.434 83.099,174.768 81.5,174.5C 81.5,165.833 81.5,157.167 81.5,148.5 Z"/></g>
<g><path style="opacity:0.922" fill="#239fa3" d="M 84.5,148.5 C 85.9952,148.989 87.3285,149.655 88.5,150.5C 88.5,157.833 88.5,165.167 88.5,172.5C 87.791,173.404 86.791,173.737 85.5,173.5C 84.5073,165.35 84.1739,157.017 84.5,148.5 Z"/></g>
<g><path style="opacity:1" fill="#187795" d="M 141.5,148.5 C 141.5,157.167 141.5,165.833 141.5,174.5C 138.659,174.44 135.993,173.774 133.5,172.5C 133.5,165.167 133.5,157.833 133.5,150.5C 135.838,148.96 138.505,148.294 141.5,148.5 Z"/></g>
<g><path style="opacity:0.888" fill="#186e8e" d="M 81.5,148.5 C 81.5,157.167 81.5,165.833 81.5,174.5C 78.279,174.104 75.6123,172.771 73.5,170.5C 74.8333,164.5 74.8333,158.5 73.5,152.5C 75.6123,150.229 78.279,148.896 81.5,148.5 Z"/></g>
<g><path style="opacity:1" fill="#219ba2" d="M 141.5,148.5 C 142.995,148.989 144.329,149.655 145.5,150.5C 145.5,157.833 145.5,165.167 145.5,172.5C 144.329,173.345 142.995,174.011 141.5,174.5C 141.5,165.833 141.5,157.167 141.5,148.5 Z"/></g>
<g><path style="opacity:0.959" fill="#176285" d="M 133.5,150.5 C 133.5,157.833 133.5,165.167 133.5,172.5C 127.38,167.807 125.88,161.807 129,154.5C 130.371,152.959 131.871,151.625 133.5,150.5 Z"/></g>
<g><path style="opacity:0.927" fill="#2ab8aa" d="M 145.5,150.5 C 147.404,150.738 148.738,151.738 149.5,153.5C 149.5,158.833 149.5,164.167 149.5,169.5C 148.738,171.262 147.404,172.262 145.5,172.5C 145.5,165.167 145.5,157.833 145.5,150.5 Z"/></g>
<g><path style="opacity:0.819" fill="#175c81" d="M 73.5,152.5 C 74.8333,158.5 74.8333,164.5 73.5,170.5C 68.1667,164.5 68.1667,158.5 73.5,152.5 Z"/></g>
<g><path style="opacity:0.973" fill="#2bbbab" d="M 88.5,150.5 C 90.7727,150.957 92.106,152.29 92.5,154.5C 92.5,159.167 92.5,163.833 92.5,168.5C 92.106,170.71 90.7727,172.043 88.5,172.5C 88.5,165.167 88.5,157.833 88.5,150.5 Z"/></g>
<g><path style="opacity:0.945" fill="#31cfb0" d="M 92.5,154.5 C 94.2394,156.375 95.2394,158.708 95.5,161.5C 95.2394,164.292 94.2394,166.625 92.5,168.5C 92.5,163.833 92.5,159.167 92.5,154.5 Z"/></g>
<g><path style="opacity:0.741" fill="#31cdaf" d="M 149.5,153.5 C 153.5,158.833 153.5,164.167 149.5,169.5C 149.5,164.167 149.5,158.833 149.5,153.5 Z"/></g>
</svg>
